<svg xmlns="http://www.w3.org/2000/svg" xmlns:xlink="http://www.w3.org/1999/xlink" width="19" height="16" viewBox="0 0 19 16"><defs><path id="rnyza" d="M579 1779h-.25l-1.79 6.27h-.01a.99.99 0 0 1-.95.73h-8a.99.99 0 0 1-.95-.73h-.01l-1.8-6.27H565a1 1 0 1 1 0-2h2.38l1.73-3.45a1 1 0 1 1 1.78.9l-1.27 2.55h4.76l-1.27-2.55a.98.98 0 0 1-.11-.45 1 1 0 1 1 1.89-.44l1.73 3.44H579a1 1 0 0 1 0 2zm-10.25 5h6.5l1.42-5h-9.34z"/></defs><g><g transform="translate(-562 -1771)"><use fill="#ccc" xlink:href="#rnyza"/></g></g></svg>