<svg xmlns="http://www.w3.org/2000/svg" xmlns:xlink="http://www.w3.org/1999/xlink" width="16" height="17" viewBox="0 0 16 17"><defs><path id="lrk5a" d="M34 463h6a4 4 0 0 1 4 4v6a4 4 0 0 1-4 4h-6a4 4 0 0 1-4-4v-6a4 4 0 0 1 4-4z"/><path id="lrk5b" d="M40.7 468.7l-1 1-3 3a1 1 0 0 1-1.4 0l-2-2a1 1 0 0 1 1.41-1.41l1.29 1.3 2.3-2.3 1-1a1 1 0 1 1 1.41 1.41z"/></defs><g><g transform="translate(-29 -461)"><use fill="#222" xlink:href="#lrk5a"/></g><g transform="translate(-29 -461)"><use fill="#fff" xlink:href="#lrk5b"/></g></g></svg>