<svg xmlns="http://www.w3.org/2000/svg" xmlns:xlink="http://www.w3.org/1999/xlink" width="12" height="12" viewBox="0 0 12 12"><defs><path id="gg14a" d="M507.28 1716.27a.9.9 0 0 1 1.26 0l2.45 2.45 2.47-2.47a.9.9 0 0 1 1.28 0 .9.9 0 0 1 0 1.28l-2.47 2.47 2.42 2.42a.9.9 0 0 1 0 1.27.9.9 0 0 1-1.26 0l-2.42-2.43-2.48 2.48a.9.9 0 0 1-1.28 0 .9.9 0 0 1 0-1.27l2.48-2.49-2.45-2.45a.9.9 0 0 1 0-1.26z"/></defs><g><g transform="translate(-505 -1714)"><use fill="#b6b6b6" xlink:href="#gg14a"/><use fill="#d5d5d5" xlink:href="#gg14a"/></g></g></svg>