<svg xmlns="http://www.w3.org/2000/svg" xmlns:xlink="http://www.w3.org/1999/xlink" width="20" height="17" viewBox="0 0 20 17"><defs><path id="rwgza" d="M566 539a1 1 0 0 0-1-1h-1v-1a1 1 0 1 0-2 0v1h-1a1 1 0 1 0 0 2h1v1a1 1 0 1 0 2 0v-1h1a1 1 0 0 0 1-1zm-3-5c.73 0 1.38.27 1.9.7a4.47 4.47 0 0 0-7.43-2.53 4.49 4.49 0 0 0-6.18 6.51l6.18 6.2 2.75-2.76-.08-.26a2.98 2.98 0 0 1-1.48-1.01l-1.16 1.14-4.78-4.73a2.48 2.48 0 0 1 3.44-3.6l1.34 1.33 1.34-1.33a2.51 2.51 0 0 1 1.69-.65 2.46 2.46 0 0 1 2 1.04c.16-.03.31-.05.47-.05z"/></defs><g><g transform="translate(-548 -529)"><use fill="#d5d5d5" xlink:href="#rwgza"/></g></g></svg>