<svg xmlns="http://www.w3.org/2000/svg" xmlns:xlink="http://www.w3.org/1999/xlink" width="19" height="19" viewBox="0 0 19 19"><defs><path id="vs6ja" d="M1851 282h10a3 3 0 0 1 3 3v10a3 3 0 0 1-3 3h-10a3 3 0 0 1-3-3v-10a3 3 0 0 1 3-3zm-1 3v10a1 1 0 0 0 1 1h10a1 1 0 0 0 1-1v-10a1 1 0 0 0-1-1h-10a1 1 0 0 0-1 1zm2 1h2v2h-2zm0 3h2v2h-2zm0 3h2v2h-2zm3-6h2v2h-2zm0 3h2v2h-2zm0 3h2v2h-2zm3-6h2v2h-2zm0 3h2v2h-2zm0 3h2v2h-2z"/></defs><g><g transform="translate(-1846 -280)"><use fill="#d5d5d5" xlink:href="#vs6ja"/></g></g></svg>