<svg xmlns="http://www.w3.org/2000/svg" xmlns:xlink="http://www.w3.org/1999/xlink" width="18" height="19" viewBox="0 0 18 19"><defs><path id="52g8a" d="M901 298h-10a3 3 0 0 1-3-3v-10a3 3 0 0 1 3-3h10a3 3 0 0 1 3 3v10a3 3 0 0 1-3 3zm1-13a1 1 0 0 0-1-1h-10a1 1 0 0 0-1 1v10a1 1 0 0 0 1 1h10a1 1 0 0 0 1-1zm-5 6h3v3h-3zm1 2h1v-1h-1zm-1-7h3v3h-3zm1 2h1v-1h-1zm-6 3h3v3h-3zm1 2h1v-1h-1zm-1-7h3v3h-3zm1 2h1v-1h-1z"/></defs><g><g transform="translate(-887 -280)"><use fill="#222" xlink:href="#52g8a"/></g></g></svg>