<svg xmlns="http://www.w3.org/2000/svg" xmlns:xlink="http://www.w3.org/1999/xlink" width="14" height="16" viewBox="0 0 14 16"><defs><path id="d1ioa" d="M1040.95 1784.05v2.83a1 1 0 0 1-1 1h-2.83a1 1 0 0 1-.7-1.7 1 1 0 0 1 .7-.3h.35a3.96 3.96 0 0 0-5.3.3 1 1 0 1 1-1.41-1.42 5.98 5.98 0 0 1 8.19-.24v-.47a1 1 0 0 1 1.7-.7c.2.19.3.44.3.7zm-7.36 7.78a1 1 0 0 1-.71.3h-.35a3.96 3.96 0 0 0 5.3-.3 1 1 0 1 1 1.41 1.41 5.98 5.98 0 0 1-8.19.24v.47a1 1 0 0 1-1.7.7 1 1 0 0 1-.3-.7v-2.83a1 1 0 0 1 1-1h2.83a1 1 0 0 1 .7 1.7z"/></defs><g><g transform="translate(-1028 -1781)"><use fill="#3d3d3d" xlink:href="#d1ioa"/></g></g></svg>