<svg xmlns="http://www.w3.org/2000/svg" xmlns:xlink="http://www.w3.org/1999/xlink" width="20" height="23" viewBox="0 0 20 23"><defs><path id="okqxa" d="M97.72 34.29c.13-.43.47-.65 1.03-.65a1 1 0 0 1 .72.31c.2.21.31.42.31.64 0 .21-.02.4-.07.54l-3.4 9.98a1.55 1.55 0 0 1-1.4 1c-.32 0-.6-.1-.86-.3a1.7 1.7 0 0 1-.55-.72l-2.55-7.95-2.54 7.95c-.11.29-.3.53-.55.73-.26.2-.55.3-.87.3a1.54 1.54 0 0 1-1.4-1l-3.4-10a1.73 1.73 0 0 1-.07-.53c0-.22.1-.43.31-.64.2-.2.45-.31.72-.31.56 0 .9.22 1.03.65L87 43.53l2.79-9.03c.08-.25.22-.46.44-.62.22-.16.46-.24.73-.24.27 0 .52.08.73.24.22.16.37.37.45.62l2.78 9.03zM91 26.99a2 2 0 1 1 0 4 2 2 0 0 1 0-4z"/></defs><g><g transform="translate(-81 -25)"><use fill="#1f4ba5" xlink:href="#okqxa"/></g></g></svg>