<svg xmlns="http://www.w3.org/2000/svg" xmlns:xlink="http://www.w3.org/1999/xlink" width="20" height="17" viewBox="0 0 20 17"><defs><path id="z9kba" d="M329 2210h-12a2 2 0 0 1-2-2v-10c0-1.1.9-2 2-2h12a2 2 0 0 1 2 2v10a2 2 0 0 1-2 2zm-11-2h10a1 1 0 0 0 1-1v-7.62l-5.33 5.33a1 1 0 0 1-1.41 0l-5.26-5.31v7.6a1 1 0 0 0 1 1zm9.55-10h-9.12l4.53 4.59z"/></defs><g><g opacity=".3" transform="translate(-313 -2194)"><use fill="#d5d5d5" xlink:href="#z9kba"/><use fill="#fff" xlink:href="#z9kba"/></g></g></svg>