<svg xmlns="http://www.w3.org/2000/svg" xmlns:xlink="http://www.w3.org/1999/xlink" width="19" height="17" viewBox="0 0 19 17"><defs><path id="1bgia" d="M848 1874v4a3 3 0 0 1-3 3h-10a3 3 0 0 1-3-3v-5a3 3 0 0 1 3-3h.76a8 8 0 0 0-1.22 2.13 1 1 0 0 0-.54.87v5a1 1 0 0 0 1 1h10a1 1 0 0 0 1-1v-2.5zm-.4-2.2l-4 3a1 1 0 0 1-1.6-.8v-1a6 6 0 0 0-5.65 4 5.98 5.98 0 0 1 5.65-8v-1a1 1 0 0 1 1.6-.8l4 3a1 1 0 0 1 0 1.6z"/></defs><g><g transform="translate(-830 -1865)"><use fill="#d5d5d5" xlink:href="#1bgia"/></g></g></svg>