<svg xmlns="http://www.w3.org/2000/svg" xmlns:xlink="http://www.w3.org/1999/xlink" width="19" height="19" viewBox="0 0 19 19"><defs><path id="7atca" d="M836 1746h-6a1 1 0 0 1 0-2h6a1 1 0 1 1 0 2zm-10.7 9.3a1 1 0 1 1 1.41 1.41l-2 2a1 1 0 0 1-1.42 0l-2-2a1 1 0 0 1 .71-1.71 1 1 0 0 1 .7.3l.3.29v-9.18l-.3.3a1 1 0 0 1-1.41-1.41l2-2a1 1 0 0 1 1.42 0l2 2a1 1 0 0 1-1.41 1.41l-.3-.3v9.18zm4.7-7.3h4a1 1 0 0 1 0 2h-4a1 1 0 1 1 0-2zm0 4h6a1 1 0 1 1 0 2h-6a1 1 0 0 1 0-2zm0 4h4a1 1 0 1 1 0 2h-4a1 1 0 0 1 0-2z"/></defs><g><g transform="translate(-819 -1741)"><use fill="#d5d5d5" xlink:href="#7atca"/></g></g></svg>