<svg xmlns="http://www.w3.org/2000/svg" xmlns:xlink="http://www.w3.org/1999/xlink" width="17" height="19" viewBox="0 0 17 19"><defs><path id="eo6ta" d="M42 290a2 2 0 0 1-2-2v-1a2 2 0 0 1 4 0v1a2 2 0 0 1-2 2zm-1-5.82V283a1 1 0 0 1 2 0v1.18a2.96 2.96 0 0 0-1-.18c-.35 0-.69.07-1 .18zM37 295a2 2 0 0 1-2-2v-1a2 2 0 0 1 4 0v1a2 2 0 0 1-2 2zm-1-5.82V283a1 1 0 0 1 2 0v6.18a2.97 2.97 0 0 0-1-.18c-.35 0-.69.07-1 .18zm-4 .82a2 2 0 0 1-2-2v-1a2 2 0 0 1 4 0v1a2 2 0 0 1-2 2zm-1-5.82V283a1 1 0 0 1 2 0v1.18a2.96 2.96 0 0 0-1-.18c-.35 0-.69.07-1 .18zm2 6.64V297a1 1 0 0 1-2 0v-6.18c.31.1.65.18 1 .18s.69-.07 1-.18zm5 5V297a1 1 0 0 1-2 0v-1.18c.31.1.65.18 1 .18s.69-.07 1-.18zm5-5V297a1 1 0 0 1-2 0v-6.18c.31.1.65.18 1 .18s.69-.07 1-.18z"/></defs><g><g transform="translate(-28 -280)"><use fill="#d5d5d5" xlink:href="#eo6ta"/></g></g></svg>