<svg xmlns="http://www.w3.org/2000/svg" xmlns:xlink="http://www.w3.org/1999/xlink" width="17" height="18" viewBox="0 0 17 18"><defs><path id="naasa" d="M1889 48a1 1 0 0 1-1-1c0-1.44-.62-2.73-1.59-3.64-.9 1.01-2.09 1.64-3.41 1.64a4.57 4.57 0 0 1-3.41-1.64A4.97 4.97 0 0 0 1878 47a1 1 0 0 1-2 0c0-2.16 1-4.07 2.53-5.35-.33-.8-.53-1.7-.53-2.65 0-3.31 2.24-6 5-6s5 2.69 5 6c0 .95-.2 1.85-.54 2.65A6.95 6.95 0 0 1 1890 47a1 1 0 0 1-1 1zm-6-13c-1.66 0-3 1.79-3 4 0 2.2 1.34 4 3 4s3-1.8 3-4c0-2.21-1.34-4-3-4z"/></defs><g><g transform="translate(-1874 -31)"><use fill="#222" xlink:href="#naasa"/></g></g></svg>