<svg xmlns="http://www.w3.org/2000/svg" xmlns:xlink="http://www.w3.org/1999/xlink" width="19" height="17" viewBox="0 0 19 17"><defs><path id="uig4a" d="M578.66 1740.68l-6.19 6.2-6.18-6.2a4.5 4.5 0 0 1 6.18-6.5 4.49 4.49 0 0 1 6.2 6.5zm-1.39-4.95a2.46 2.46 0 0 0-1.74-.72c-.63 0-1.22.23-1.69.65l-1.34 1.33-1.34-1.33a2.51 2.51 0 0 0-1.69-.65 2.48 2.48 0 0 0-1.75 4.25l4.78 4.73 4.77-4.72a2.48 2.48 0 0 0 0-3.54z"/></defs><g><g transform="translate(-563 -1731)"><use fill="#ccc" xlink:href="#uig4a"/></g></g></svg>