<svg xmlns="http://www.w3.org/2000/svg" xmlns:xlink="http://www.w3.org/1999/xlink" width="20" height="20" viewBox="0 0 20 20"><defs><path id="dl8ma" d="M436.72 1788.72a1 1 0 0 1-1.42 0l-3.15-3.15a6.98 6.98 0 0 1-9.12-10.54 6.98 6.98 0 1 1 10.54 9.12l3.15 3.15a1 1 0 0 1 0 1.42zm-5.2-12.27a5 5 0 1 0-7.07 7.07 5 5 0 0 0 7.07-7.07zM430 1781h-1v1a1 1 0 0 1-2 0v-1h-1a1 1 0 0 1 0-2h1v-1a1 1 0 0 1 2 0v1h1a1 1 0 0 1 0 2z"/></defs><g><g transform="translate(-419 -1771)"><use fill="#d5d5d5" xlink:href="#dl8ma"/></g></g></svg>