<?xml version="1.0" standalone="no"?>
<!DOCTYPE svg PUBLIC "-//W3C//DTD SVG 1.1//EN" "http://www.w3.org/Graphics/SVG/1.1/DTD/svg11.dtd" >
<svg xmlns="http://www.w3.org/2000/svg">
<metadata>Generated by IcoMoon</metadata>
<defs>
<font id="icomoon" horiz-adv-x="1024">
<font-face units-per-em="1024" ascent="960" descent="-64" />
<missing-glyph horiz-adv-x="1024" />
<glyph unicode="&#x20;" horiz-adv-x="512" d="" />
<glyph unicode="&#xe900;" glyph-name="accept" d="M916.086 544.098l-98.462-104.763-295.385-315.077c-17.249-18.808-41.894-30.593-69.294-30.72h-0.023c-27.533 0.343-52.182 12.406-69.239 31.419l-0.078 0.088-196.923 209.526c-18.054 19.243-29.145 45.208-29.145 73.762 0 0.099 0 0.197 0 0.296v-0.015c0 58.289 44.111 104.763 98.462 104.763 27.569 0 51.988-11.815 69.317-30.72l127.606-135.483 324.529 345.797c17.329 18.905 41.748 31.508 69.317 31.508 54.351 0 98.462-47.262 98.462-105.551 0-29.145-11.028-55.138-29.145-74.831z" />
<glyph unicode="&#xe901;" glyph-name="arrow-down" d="M246.898 491.236c-12.009 13.567-19.342 31.515-19.342 51.175 0 0.009 0 0.018 0 0.027v-0.001c0 42.098 32.996 76.231 72.818 76.231 21.618 0 40.96-9.102 53.476-25.031l215.040-242.347 213.902 242.347c13.224 15.363 32.695 25.031 54.424 25.031 0.067 0 0.133 0 0.2 0h-0.010c39.822 0 72.818-34.133 72.818-76.231 0-19.342-7.964-37.547-19.342-51.2l-268.516-302.649c-13.022-15.131-32.098-24.738-53.425-25.031l-0.051-0.001c-21.377 0.293-40.454 9.9-53.396 24.937l-0.079 0.094z" />
<glyph unicode="&#xe902;" glyph-name="arrow-right" d="M204.8 379.733c-37.703 0-68.267 30.564-68.267 68.267s30.564 68.267 68.267 68.267v0h451.925l-91.477 89.429c-12.404 12.404-20.077 29.541-20.077 48.469 0 37.857 30.689 68.546 68.546 68.546 18.928 0 36.065-7.672 48.469-20.077v0l205.483-202.752c12.407-12.363 20.084-29.465 20.084-48.361 0-2.201-0.104-4.378-0.308-6.526l0.021 0.274c-1.151-23.918-14.444-44.492-33.81-55.804l-0.324-0.175-191.829-193.195c-12.344-12.259-29.351-19.836-48.128-19.836-37.724 0-68.305 30.581-68.305 68.305 0 18.947 7.714 36.092 20.173 48.466l0.004 0.004 86.016 86.699z" />
<glyph unicode="&#xe903;" glyph-name="bag" d="M862.316-10.105h-646.737c-59.53 0-107.789 48.259-107.789 107.789v0l53.895 323.368c14.013 56.051 48.505 107.789 107.789 107.789h53.895v107.789c0 119.061 96.518 215.579 215.579 215.579s215.579-96.518 215.579-215.579v0-107.789h53.895c59.53 0 107.789-48.259 107.789-107.789v0l53.895-323.368c0-59.53-48.259-107.789-107.789-107.789v0zM808.96 421.053h-54.434v-53.895c0-29.765-24.129-53.895-53.895-53.895s-53.895 24.129-53.895 53.895v0 53.895h-215.579v-53.895c0-29.765-24.129-53.895-53.895-53.895s-53.895 24.129-53.895 53.895v0 53.895h-54.434l-53.356-323.368h646.737zM646.737 636.632c0 59.53-48.259 107.789-107.789 107.789s-107.789-48.259-107.789-107.789v0-107.789h215.579z" />
<glyph unicode="&#xe904;" glyph-name="basket" d="M916.211 448h-13.474l-96.472-337.92h-0.539c-6.344-22.763-26.833-39.21-51.185-39.343h-431.173c-24.367 0.133-44.856 16.58-51.11 38.968l-0.090 0.375h-0.539l-97.011 337.92h-12.935c-29.765 0-53.895 24.129-53.895 53.895s24.129 53.895 53.895 53.895v0h128.269l93.238 185.937c8.337 19.647 27.465 33.176 49.753 33.176 29.765 0 53.895-24.129 53.895-53.895 0-10.264-2.869-19.859-7.85-28.024l0.134 0.237-68.446-137.432h256.539l-68.446 137.432c-3.726 7.041-5.918 15.39-5.928 24.249v0.003c-3.732 7.14-5.922 15.595-5.922 24.561 0 29.765 24.129 53.895 53.895 53.895s53.895-24.129 53.895-53.895c0-0.298-0.002-0.595-0.007-0.892l0.001 0.045 93.238-185.398h128.269c29.765 0 53.895-24.129 53.895-53.895s-24.129-53.895-53.895-53.895v0zM363.789 178.526h350.316l76.531 269.474h-503.377z" />
<glyph unicode="&#xe905;" glyph-name="checkbox" d="M292.571 960h438.857c161.583 0 292.571-130.989 292.571-292.571v0-438.857c0-161.583-130.989-292.571-292.571-292.571v0h-438.857c-161.583 0-292.571 130.989-292.571 292.571v0 438.857c0 161.583 130.989 292.571 292.571 292.571v0z" />
<glyph unicode="&#xe906;" d="M331.294 839.529h361.412c133.068 0 240.941-107.873 240.941-240.941v0-361.412c0-133.068-107.873-240.941-240.941-240.941v0h-361.412c-133.068 0-240.941 107.873-240.941 240.941v0 361.412c0 133.068 107.873 240.941 240.941 240.941v0z" />
<glyph unicode="&#xe907;" d="M734.871 496.188l-240.941-240.941c-10.856-10.647-25.743-17.219-42.165-17.219s-31.309 6.571-42.174 17.228l0.010-0.009-120.471 120.471c-9.002 10.464-14.484 24.182-14.484 39.18 0 33.267 26.968 60.235 60.235 60.235 14.998 0 28.716-5.482 39.26-14.551l-0.079 0.067 77.704-78.306 198.776 198.776c11.113 12.922 27.483 21.055 45.751 21.055 33.267 0 60.235-26.968 60.235-60.235 0-18.269-8.133-34.638-20.976-45.685l-0.079-0.067z" />
<glyph unicode="&#xe908;" glyph-name="data-trans" d="M630.154 283.372l23.631 23.631c13.684 11.772 31.623 18.941 51.236 18.941 43.503 0 78.769-35.266 78.769-78.769 0-19.613-7.168-37.552-19.028-51.34l0.087 0.104-157.538-157.538c-14.277-14.391-34.061-23.3-55.926-23.3s-41.649 8.909-55.921 23.295l-157.543 157.543c-16.638 14.519-27.091 35.762-27.091 59.447 0 43.503 35.266 78.769 78.769 78.769 24.077 0 45.631-10.803 60.080-27.826l0.094-0.113 22.843-22.843v441.108c0 43.503 35.266 78.769 78.769 78.769s78.769-35.266 78.769-78.769v0z" />
<glyph unicode="&#xe909;" d="M935.253 598.187l-136.533 136.533c-12.304 12.067-29.175 19.515-47.787 19.515s-35.483-7.448-47.798-19.525l-136.522-136.522c-12.071-12.304-19.521-29.179-19.521-47.793 0-37.365 30.020-67.719 67.257-68.259l0.051-0.001c18.739 0.275 35.608 8.059 47.776 20.469l0.011 0.011 20.48 19.797v-381.611c0-37.703 30.564-68.267 68.267-68.267s68.267 30.564 68.267 68.267v0 381.611l20.48-20.48c12.583-14.419 30.994-23.479 51.521-23.479 37.703 0 68.267 30.564 68.267 68.267 0 20.867-9.362 39.547-24.116 52.069l-0.098 0.081zM409.6 686.933c0 37.703-30.564 68.267-68.267 68.267s-68.267-30.564-68.267-68.267v0-381.611l-20.48 20.48c-12.304 12.071-29.179 19.521-47.793 19.521-37.365 0-67.719-30.020-68.259-67.257l-0.001-0.051c-0.001-0.118-0.001-0.259-0.001-0.399 0-19.092 7.837-36.353 20.47-48.743l136.544-136.544c12.304-12.067 29.175-19.515 47.787-19.515s35.483 7.448 47.798 19.525l136.522 136.522c14.852 12.603 24.214 31.284 24.214 52.151 0 37.703-30.564 68.267-68.267 68.267-20.527 0-38.937-9.059-51.452-23.398l-0.069-0.081-20.48-20.48z" />
<glyph unicode="&#xe90a;" d="M935.253 598.187l-136.533 136.533c-12.304 12.067-29.175 19.515-47.787 19.515s-35.483-7.448-47.798-19.525l-136.522-136.522c-12.071-12.304-19.521-29.179-19.521-47.793 0-37.365 30.020-67.719 67.257-68.259l0.051-0.001c18.739 0.275 35.608 8.059 47.776 20.469l0.011 0.011 20.48 19.797v-381.611c0-37.703 30.564-68.267 68.267-68.267s68.267 30.564 68.267 68.267v0 381.611l20.48-20.48c12.583-14.419 30.994-23.479 51.521-23.479 37.703 0 68.267 30.564 68.267 68.267 0 20.867-9.362 39.547-24.116 52.069l-0.098 0.081zM409.6 686.933c0 37.703-30.564 68.267-68.267 68.267s-68.267-30.564-68.267-68.267v0-381.611l-20.48 20.48c-12.304 12.071-29.179 19.521-47.793 19.521-37.365 0-67.719-30.020-68.259-67.257l-0.001-0.051c-0.001-0.118-0.001-0.259-0.001-0.399 0-19.092 7.837-36.353 20.47-48.743l136.544-136.544c12.304-12.067 29.175-19.515 47.787-19.515s35.483 7.448 47.798 19.525l136.522 136.522c14.852 12.603 24.214 31.284 24.214 52.151 0 37.703-30.564 68.267-68.267 68.267-20.527 0-38.937-9.059-51.452-23.398l-0.069-0.081-20.48-20.48z" />
<glyph unicode="&#xe90b;" d="M194.56 766.293c13.842 13.575 32.822 21.954 53.76 21.954s39.918-8.379 53.772-21.966l209.055-209.055 210.773 210.773c13.928 14.083 33.252 22.803 54.613 22.803s40.685-8.721 54.606-22.797l0.007-0.007c14.083-13.928 22.803-33.252 22.803-54.613s-8.721-40.685-22.797-54.606l-210.78-210.78 206.507-206.507c13.827-13.886 22.375-33.038 22.375-54.187s-8.548-40.301-22.378-54.189l0.003 0.003c-13.842-13.575-32.822-21.954-53.76-21.954s-39.918 8.379-53.772 21.966l0.012-0.012-206.507 207.36-211.627-211.627c-13.928-14.083-33.252-22.803-54.613-22.803s-40.685 8.721-54.606 22.797l-0.007 0.007c-13.827 13.886-22.375 33.038-22.375 54.187s8.548 40.301 22.378 54.189l211.624 212.477-209.067 209.067c-13.575 13.842-21.954 32.822-21.954 53.76s8.379 39.918 21.966 53.772l-0.012-0.012z" />
<glyph unicode="&#xe90c;" d="M194.56 766.293c13.842 13.575 32.822 21.954 53.76 21.954s39.918-8.379 53.772-21.966l209.055-209.055 210.773 210.773c13.928 14.083 33.252 22.803 54.613 22.803s40.685-8.721 54.606-22.797l0.007-0.007c14.083-13.928 22.803-33.252 22.803-54.613s-8.721-40.685-22.797-54.606l-210.78-210.78 206.507-206.507c13.827-13.886 22.375-33.038 22.375-54.187s-8.548-40.301-22.378-54.189l0.003 0.003c-13.842-13.575-32.822-21.954-53.76-21.954s-39.918 8.379-53.772 21.966l0.012-0.012-206.507 207.36-211.627-211.627c-13.928-14.083-33.252-22.803-54.613-22.803s-40.685 8.721-54.606 22.797l-0.007 0.007c-13.827 13.886-22.375 33.038-22.375 54.187s8.548 40.301 22.378 54.189l211.624 212.477-209.067 209.067c-13.575 13.842-21.954 32.822-21.954 53.76s8.379 39.918 21.966 53.772l-0.012-0.012z" />
<glyph unicode="&#xe90d;" glyph-name="heart-plus" d="M921.6 371.2c0 28.277-22.923 51.2-51.2 51.2v0h-51.2v51.2c0 28.277-22.923 51.2-51.2 51.2s-51.2-22.923-51.2-51.2v0-51.2h-51.2c-28.277 0-51.2-22.923-51.2-51.2s22.923-51.2 51.2-51.2v0h51.2v-51.2c0-28.277 22.923-51.2 51.2-51.2s51.2 22.923 51.2 51.2v0 51.2h51.2c28.277 0 51.2 22.923 51.2 51.2v0zM768 627.2c37.376 0 70.656-13.824 97.28-35.84-19.257 108.545-112.889 189.914-225.525 189.914-59.818 0-114.276-22.949-155.050-60.523l0.159 0.145c-40.498 36.387-94.335 58.639-153.37 58.639-126.964 0-229.888-102.924-229.888-229.888 0-63.237 25.533-120.511 66.853-162.074l-0.011 0.011 316.416-317.44 140.8 141.312-4.096 13.312c-30.814 9.502-56.657 27.563-75.533 51.394l-0.243 0.318-59.392-58.368-244.736 242.176c-24.301 23.251-39.407 55.942-39.407 92.16 0 70.4 57.070 127.471 127.471 127.471 34.182 0 65.221-13.454 88.111-35.355l-0.047 0.045 68.608-68.096 68.608 68.096c22.715 20.642 53.028 33.28 86.292 33.28 0.083 0 0.166 0 0.249 0h-0.013c42.142-0.155 79.386-20.983 102.14-52.864l0.26-0.384c8.192 1.536 15.872 2.56 24.064 2.56z" />
<glyph unicode="&#xe90e;" glyph-name="list" d="M269.474 852.211h538.947c89.296 0 161.684-72.388 161.684-161.684v0-538.947c0-89.296-72.388-161.684-161.684-161.684v0h-538.947c-89.296 0-161.684 72.388-161.684 161.684v0 538.947c0 89.296 72.388 161.684 161.684 161.684v0zM215.579 690.526v-538.947c0-29.765 24.129-53.895 53.895-53.895v0h538.947c29.765 0 53.895 24.129 53.895 53.895v0 538.947c0 29.765-24.129 53.895-53.895 53.895v0h-538.947c-29.765 0-53.895-24.129-53.895-53.895v0zM323.368 636.632h107.789v-107.789h-107.789zM323.368 474.947h107.789v-107.789h-107.789zM323.368 313.263h107.789v-107.789h-107.789zM485.053 636.632h107.789v-107.789h-107.789zM485.053 474.947h107.789v-107.789h-107.789zM485.053 313.263h107.789v-107.789h-107.789zM646.737 636.632h107.789v-107.789h-107.789zM646.737 474.947h107.789v-107.789h-107.789zM646.737 313.263h107.789v-107.789h-107.789z" />
<glyph unicode="&#xe90f;" glyph-name="list-1" d="M781.474-10.105h-538.947c-89.296 0-161.684 72.388-161.684 161.684v0 538.947c0 89.296 72.388 161.684 161.684 161.684v0h538.947c89.296 0 161.684-72.388 161.684-161.684v0-538.947c0-89.296-72.388-161.684-161.684-161.684v0zM835.368 690.526c0 29.765-24.129 53.895-53.895 53.895v0h-538.947c-29.765 0-53.895-24.129-53.895-53.895v0-538.947c0-29.765 24.129-53.895 53.895-53.895v0h538.947c29.765 0 53.895 24.129 53.895 53.895v0zM565.895 367.158h161.684v-161.684h-161.684zM619.789 259.368h53.895v53.895h-53.895zM565.895 636.632h161.684v-161.684h-161.684zM619.789 528.842h53.895v53.895h-53.895zM296.421 367.158h161.684v-161.684h-161.684zM350.316 259.368h53.895v53.895h-53.895zM296.421 636.632h161.684v-161.684h-161.684zM350.316 528.842h53.895v53.895h-53.895z" />
<glyph unicode="&#xe910;" glyph-name="list-active" d="M808.421-10.105h-538.947c-89.296 0-161.684 72.388-161.684 161.684v0 538.947c0 89.296 72.388 161.684 161.684 161.684v0h538.947c89.296 0 161.684-72.388 161.684-161.684v0-538.947c0-89.296-72.388-161.684-161.684-161.684v0zM862.316 690.526c0 29.765-24.129 53.895-53.895 53.895v0h-538.947c-29.765 0-53.895-24.129-53.895-53.895v0-538.947c0-29.765 24.129-53.895 53.895-53.895v0h538.947c29.765 0 53.895 24.129 53.895 53.895v0zM592.842 367.158h161.684v-161.684h-161.684zM646.737 259.368h53.895v53.895h-53.895zM592.842 636.632h161.684v-161.684h-161.684zM646.737 528.842h53.895v53.895h-53.895zM323.368 367.158h161.684v-161.684h-161.684zM377.263 259.368h53.895v53.895h-53.895zM323.368 636.632h161.684v-161.684h-161.684zM377.263 528.842h53.895v53.895h-53.895z" />
<glyph unicode="&#xe911;" glyph-name="load-more" d="M892.8 764.8v-181.12c0-35.346-28.654-64-64-64v0h-181.12c-34.957 0.507-63.101 28.964-63.101 63.994 0 17.451 6.985 33.271 18.311 44.816l-0.010-0.010c11.418 11.645 27.232 18.942 44.752 19.199l0.048 0.001h22.4c-43.074 34.916-98.554 56.057-158.971 56.057-70.494 0-134.266-28.781-180.206-75.233l-0.023-0.023c-11.572-11.493-27.517-18.596-45.12-18.596-35.366 0-64.036 28.67-64.036 64.036 0 17.763 7.232 33.836 18.912 45.436l0.004 0.004c69.221 69.034 164.749 111.719 270.246 111.719 97.614 0 186.692-36.544 254.3-96.697l-0.387 0.338v30.080c0.507 34.957 28.964 63.101 63.994 63.101 17.451 0 33.271-6.985 44.816-18.311l-0.010 0.010c12.8-12.16 19.2-28.16 19.2-44.8zM421.76 266.88c-11.564-11.791-27.638-19.124-45.426-19.2h-22.414c43.074-34.916 98.554-56.057 158.971-56.057 70.494 0 134.266 28.781 180.206 75.233l0.023 0.023c11.808 13.73 29.2 22.371 48.611 22.371 35.346 0 64-28.654 64-64 0-19.411-8.641-36.803-22.287-48.54l-0.084-0.071c-69.221-69.034-164.749-111.719-270.246-111.719-97.614 0-186.692 36.544-254.3 96.697l0.387-0.338v-30.080c-0.507-34.957-28.964-63.101-63.994-63.101-17.451 0-33.271 6.985-44.816 18.311l0.010-0.010c-11.645 11.418-18.942 27.232-19.199 44.752l-0.001 0.048v181.12c0 35.346 28.654 64 64 64v0h181.12c34.957-0.507 63.101-28.964 63.101-63.994 0-17.451-6.985-33.271-18.311-44.816l0.010 0.010z" />
<glyph unicode="&#xe912;" glyph-name="location" d="M538.947-10.105s-323.368 360.556-323.368 538.947c0 178.591 144.777 323.368 323.368 323.368s323.368-144.777 323.368-323.368v0c0-178.392-323.368-538.947-323.368-538.947zM540.025 744.421c-119.061 0-215.579-96.518-215.579-215.579v0c0-68.985 101.322-229.592 215.579-371.874 114.257 142.282 215.579 302.888 215.579 371.874 0 119.061-96.518 215.579-215.579 215.579v0zM485.053 528.842c0 29.765 24.129 53.895 53.895 53.895s53.895-24.129 53.895-53.895v0c0-29.765-24.129-53.895-53.895-53.895s-53.895 24.129-53.895 53.895v0z" />
<glyph unicode="&#xe913;" glyph-name="logo" d="M811.186 546.393c5.788 19.144 20.925 28.939 45.857 28.939 12.607-0.050 23.97-5.331 32.039-13.784l0.016-0.017c8.904-9.35 13.802-18.699 13.802-28.494 0-9.35-0.89-17.809-3.117-24.042l-151.374-444.327c-9.891-25.585-33.895-43.586-62.219-44.519l-0.112-0.003c-14.247 0-26.713 4.452-38.289 13.357-10.773 8.226-19.163 19.049-24.304 31.552l-0.183 0.504-113.53 353.948-113.085-353.948c-4.897-12.911-13.357-23.597-24.487-32.501-11.576-8.904-24.487-13.357-38.734-13.357-28.477 0.81-52.539 18.863-62.173 44.052l-0.158 0.47-151.374 445.217c-1.992 6.516-3.138 14.005-3.138 21.762 0 0.645 0.008 1.288 0.024 1.929l-0.002-0.095c0 9.795 4.452 19.144 13.802 28.494 8.904 8.904 20.035 13.802 32.056 13.802 24.932 0 40.070-9.795 45.857-28.939l125.551-411.381 124.216 402.031c3.562 11.13 9.795 20.48 19.59 27.603s20.48 10.685 32.501 10.685c12.021 0 23.151-3.562 32.501-10.685 9.795-7.123 16.473-16.473 20.035-27.603l123.77-402.031zM512 871.402c49.177 0 89.043-39.866 89.043-89.043s-39.866-89.043-89.043-89.043v0c-49.177 0-89.043 39.866-89.043 89.043s39.866 89.043 89.043 89.043v0z" />
<glyph unicode="&#xe914;" glyph-name="log-out" d="M778.779 154.274c-68.275-68.275-162.595-110.503-266.779-110.503-208.367 0-377.282 168.915-377.282 377.282 0 104.184 42.229 198.504 110.503 266.779l37.726 37.726c9.95 11.725 24.698 19.116 41.172 19.116 29.765 0 53.895-24.129 53.895-53.895 0-16.205-7.152-30.74-18.472-40.62l-0.064-0.055-37.726-38.265c-48.782-48.768-78.956-116.148-78.956-190.575 0-148.826 120.647-269.474 269.474-269.474s269.474 120.647 269.474 269.474c0 74.427-30.173 141.807-78.955 190.575l-0.001 0.001-38.265 37.726c-9.839 9.772-15.929 23.307-15.929 38.265 0 29.782 24.143 53.925 53.925 53.925 14.824 0 28.251-5.982 37.999-15.663l-0.003 0.003 37.726-38.265c68.279-68.273 110.511-162.594 110.511-266.779s-42.232-198.506-110.511-266.779v0zM512 528.842c-29.765 0-53.895 24.129-53.895 53.895v0 215.579c0 29.765 24.129 53.895 53.895 53.895s53.895-24.129 53.895-53.895v0-215.579c0-29.765-24.129-53.895-53.895-53.895v0z" />
<glyph unicode="&#xe915;" d="M819.2 64h-614.4c-56.554 0-102.4 45.846-102.4 102.4v0 512c0 56.32 46.080 102.4 102.4 102.4h614.4c56.554 0 102.4-45.846 102.4-102.4v0-512c0-56.554-45.846-102.4-102.4-102.4v0zM256 166.4h512c28.277 0 51.2 22.923 51.2 51.2v0 390.144l-272.896-272.896c-9.255-9.201-22.011-14.889-36.096-14.889s-26.842 5.687-36.098 14.891l0.002-0.002-269.312 271.872v-389.12c0-28.277 22.923-51.2 51.2-51.2v0zM744.96 678.4h-466.944l231.936-235.008z" />
<glyph unicode="&#xe916;" d="M819.2 64h-614.4c-56.554 0-102.4 45.846-102.4 102.4v0 512c0 56.32 46.080 102.4 102.4 102.4h614.4c56.554 0 102.4-45.846 102.4-102.4v0-512c0-56.554-45.846-102.4-102.4-102.4v0zM256 166.4h512c28.277 0 51.2 22.923 51.2 51.2v0 390.144l-272.896-272.896c-9.255-9.201-22.011-14.889-36.096-14.889s-26.842 5.687-36.098 14.891l0.002-0.002-269.312 271.872v-389.12c0-28.277 22.923-51.2 51.2-51.2v0zM744.96 678.4h-466.944l231.936-235.008z" />
<glyph unicode="&#xe917;" glyph-name="menu" d="M128 736c0-53.12 42.88-96 96-96h640c53.019 0 96 42.981 96 96s-42.981 96-96 96v0h-640c-53.12 0-96-42.88-96-96zM128 416c0-53.12 42.88-96 96-96h640c53.019 0 96 42.981 96 96s-42.981 96-96 96v0h-640c-53.12 0-96-42.88-96-96zM128 96c0-53.12 42.88-96 96-96h640c53.019 0 96 42.981 96 96s-42.981 96-96 96v0h-640c-53.12 0-96-42.88-96-96z" />
<glyph unicode="&#xe918;" glyph-name="minus" d="M538.947 852.211c238.122 0 431.158-193.036 431.158-431.158s-193.036-431.158-431.158-431.158v0c-238.122 0-431.158 193.036-431.158 431.158s193.036 431.158 431.158 431.158v0zM215.579 421.053c0-178.591 144.777-323.368 323.368-323.368s323.368 144.777 323.368 323.368v0c0 178.591-144.777 323.368-323.368 323.368s-323.368-144.777-323.368-323.368v0zM646.737 474.947c29.765 0 53.895-24.129 53.895-53.895s-24.129-53.895-53.895-53.895v0h-215.579c-29.765 0-53.895 24.129-53.895 53.895s24.129 53.895 53.895 53.895v0z" />
<glyph unicode="&#xe919;" glyph-name="plus" d="M538.947 852.211c238.122 0 431.158-193.036 431.158-431.158s-193.036-431.158-431.158-431.158v0c-238.122 0-431.158 193.036-431.158 431.158s193.036 431.158 431.158 431.158v0zM215.579 421.053c0-178.591 144.777-323.368 323.368-323.368s323.368 144.777 323.368 323.368v0c0 178.591-144.777 323.368-323.368 323.368s-323.368-144.777-323.368-323.368v0zM646.737 474.947c29.765 0 53.895-24.129 53.895-53.895s-24.129-53.895-53.895-53.895v0h-53.895v-53.895c0-29.765-24.129-53.895-53.895-53.895s-53.895 24.129-53.895 53.895v0 53.895h-53.895c-29.765 0-53.895 24.129-53.895 53.895s24.129 53.895 53.895 53.895v0h53.895v53.895c0 29.765 24.129 53.895 53.895 53.895s53.895-24.129 53.895-53.895v0-53.895z" />
<glyph unicode="&#xe91a;" glyph-name="search" d="M907.264 52.736c-9.28-9.354-22.14-15.145-36.352-15.145s-27.072 5.791-36.349 15.142l-161.283 161.283c-59.7-46.413-135.722-74.409-218.283-74.409-197.373 0-357.376 160.003-357.376 357.376 0 100.681 41.633 191.637 108.623 256.593l0.092 0.089c65.988 84.952 168.154 139.093 282.967 139.093 197.373 0 357.376-160.003 357.376-357.376 0-96.693-38.401-184.417-100.783-248.753l0.089 0.092 161.28-161.28c9.354-9.28 15.145-22.14 15.145-36.352s-5.791-27.072-15.142-36.349l-0.003-0.003zM641.024 680.96c-46.616 48.218-111.881 78.154-184.138 78.154-141.385 0-256-114.615-256-256 0-72.257 29.936-137.522 78.082-184.069l0.072-0.069c45.989-44.462 108.718-71.862 177.846-71.862 141.385 0 256 114.615 256 256 0 69.128-27.4 131.857-71.931 177.918l0.069-0.072z" />
<glyph unicode="&#xe91b;" glyph-name="settings" d="M863.933 491.116v-0.539l-8.084-5.389c4.064-19.281 6.391-41.436 6.391-64.135s-2.327-44.854-6.756-66.24l0.364 2.105 8.084-5.389c34.697-18.379 57.932-54.259 57.932-95.566 0-59.53-48.259-107.789-107.789-107.789-22.868 0-44.073 7.121-61.518 19.268l0.353-0.232-9.162 5.389c-29.103-23.714-61.44-42.577-97.011-54.973v-19.941c0-59.53-48.259-107.789-107.789-107.789s-107.789 48.259-107.789 107.789v0 19.941c-37.246 13.416-69.419 32.050-97.537 55.398l0.527-0.425-9.162-5.389c-16.062-10.196-35.626-16.249-56.603-16.249-58.935 0-106.712 47.776-106.712 106.712 0 0.597 0.005 1.192 0.015 1.787l-0.001-0.089c0.088 38.937 20.807 73.014 51.802 91.891l0.476 0.269 8.084 5.389c-4.106 19.362-6.457 41.609-6.457 64.404s2.351 45.042 6.824 66.511l-0.367-2.107-8.084 4.851c-34.697 18.379-57.932 54.259-57.932 95.566 0 59.53 48.259 107.789 107.789 107.789 22.868 0 44.073-7.121 61.518-19.268l-0.353 0.232 9.162-5.389c27.588 22.933 59.763 41.568 94.782 54.267l2.228 0.706v19.941c0 59.53 48.259 107.789 107.789 107.789s107.789-48.259 107.789-107.789v0-19.941c35.571-12.396 67.907-31.259 97.011-54.973l9.162 5.389c16.168 9.701 35.032 16.168 55.512 16.168 0.151 0.001 0.33 0.001 0.509 0.001 59.53 0 107.789-48.259 107.789-107.789 0-39.236-20.963-73.575-52.301-92.429l-0.486-0.271zM538.947 636.632c-119.061 0-215.579-96.518-215.579-215.579s96.518-215.579 215.579-215.579v0c119.061 0 215.579 96.518 215.579 215.579s-96.518 215.579-215.579 215.579v0zM538.947 313.263c-59.53 0-107.789 48.259-107.789 107.789s48.259 107.789 107.789 107.789v0c59.53 0 107.789-48.259 107.789-107.789s-48.259-107.789-107.789-107.789v0z" />
<glyph unicode="&#xe91c;" glyph-name="share" d="M970.105 421.053v-215.579c0-89.296-72.388-161.684-161.684-161.684v0h-538.947c-89.296 0-161.684 72.388-161.684 161.684v0 269.474c0 89.296 72.388 161.684 161.684 161.684v0h40.96c-26.5-32.927-48.669-70.866-64.74-111.866l-1.012-2.93c-17.147-9.016-28.726-26.558-29.102-46.838l-0.001-0.051v-269.474c0-29.765 24.129-53.895 53.895-53.895v0h538.947c29.765 0 53.895 24.129 53.895 53.895v0 134.737zM948.547 539.621l-215.579-161.684c-8.895-6.729-20.143-10.779-32.337-10.779-29.765 0-53.895 24.129-53.895 53.895v0 53.895c-139.806-0.165-258.814-89.025-303.794-213.328l-0.712-2.251c-12.001 32.399-18.945 69.823-18.945 108.869 0 177.996 144.294 322.291 322.291 322.291 0.408 0 0.815-0.001 1.223-0.002h-0.063v53.895c0 29.765 24.129 53.895 53.895 53.895 12.194 0 23.442-4.050 32.472-10.877l-0.136 0.098 215.579-161.684c13.149-9.937 21.558-25.544 21.558-43.116s-8.409-33.179-21.422-43.018l-0.136-0.098z" />
<glyph unicode="&#xe91d;" glyph-name="size-guide" d="M916.211 690.526h-323.368c-29.765 0-53.895 24.129-53.895 53.895s24.129 53.895 53.895 53.895v0h323.368c29.765 0 53.895-24.129 53.895-53.895s-24.129-53.895-53.895-53.895v0zM339.537 189.305c9.943 11.562 24.59 18.839 40.935 18.839 29.765 0 53.895-24.129 53.895-53.895 0-16.346-7.277-30.992-18.768-40.876l-0.071-0.060-107.789-107.789c-9.768-9.846-23.305-15.942-38.265-15.942s-28.497 6.096-38.262 15.938l-107.793 107.793c-9.847 9.768-15.943 23.305-15.943 38.266 0 29.765 24.129 53.895 53.895 53.895 0.11 0 0.22 0 0.33-0.001h-0.017c14.794-0.217 28.112-6.362 37.718-16.16l0.009-0.009 16.168-15.629v494.754l-16.168-16.168c-9.363-8.055-21.637-12.959-35.056-12.959-29.765 0-53.895 24.129-53.895 53.895 0 13.419 4.905 25.693 13.019 35.127l-0.060-0.071 107.789 107.789c9.768 9.846 23.305 15.942 38.265 15.942s28.497-6.096 38.262-15.938l107.793-107.793c8.055-9.363 12.959-21.637 12.959-35.056 0-29.765-24.129-53.895-53.895-53.895-13.419 0-25.693 4.905-35.127 13.019l0.071-0.060-16.168 16.168v-494.754zM592.842 582.737h215.579c29.765 0 53.895-24.129 53.895-53.895s-24.129-53.895-53.895-53.895v0h-215.579c-29.765 0-53.895 24.129-53.895 53.895s24.129 53.895 53.895 53.895v0zM592.842 367.158h323.368c29.765 0 53.895-24.129 53.895-53.895s-24.129-53.895-53.895-53.895v0h-323.368c-29.765 0-53.895 24.129-53.895 53.895s24.129 53.895 53.895 53.895v0zM592.842 151.579h215.579c29.765 0 53.895-24.129 53.895-53.895s-24.129-53.895-53.895-53.895v0h-215.579c-29.765 0-53.895 24.129-53.895 53.895s24.129 53.895 53.895 53.895v0z" />
<glyph unicode="&#xe91e;" glyph-name="sliders" d="M808.421 421.053c-59.53 0-107.789 48.259-107.789 107.789v0 53.895c0 59.53 48.259 107.789 107.789 107.789s107.789-48.259 107.789-107.789v0-53.895c0-59.53-48.259-107.789-107.789-107.789v0zM754.526 734.72v63.596c0 29.765 24.129 53.895 53.895 53.895s53.895-24.129 53.895-53.895v0-63.596c-16.014 6.042-34.523 9.589-53.846 9.701h-0.048c-18.863 0-37.187-3.773-53.895-9.701zM538.947 151.579c-59.53 0-107.789 48.259-107.789 107.789v0 53.895c0 59.53 48.259 107.789 107.789 107.789s107.789-48.259 107.789-107.789v0-53.895c0-59.53-48.259-107.789-107.789-107.789v0zM485.053 465.246v333.069c0 29.765 24.129 53.895 53.895 53.895s53.895-24.129 53.895-53.895v0-333.069c-16.014 6.031-34.521 9.577-53.841 9.701h-0.054c-18.863 0-37.187-3.773-53.895-9.701zM269.474 421.053c-59.53 0-107.789 48.259-107.789 107.789v0 53.895c0 59.53 48.259 107.789 107.789 107.789s107.789-48.259 107.789-107.789v0-53.895c0-59.53-48.259-107.789-107.789-107.789v0zM215.579 734.72v63.596c0 29.765 24.129 53.895 53.895 53.895s53.895-24.129 53.895-53.895v0-63.596c-16.014 6.042-34.523 9.589-53.846 9.701h-0.048c-18.863 0-37.187-3.773-53.895-9.701zM323.368 376.859v-333.069c0-29.765-24.129-53.895-53.895-53.895s-53.895 24.129-53.895 53.895v0 333.069c16.707-5.389 35.032-9.701 53.895-9.701s37.187 3.773 53.895 9.701zM592.842 107.385v-63.596c0-29.765-24.129-53.895-53.895-53.895s-53.895 24.129-53.895 53.895v0 63.596c16.707-5.389 35.032-9.701 53.895-9.701s37.187 3.773 53.895 9.701zM862.316 376.859v-333.069c0-29.765-24.129-53.895-53.895-53.895s-53.895 24.129-53.895 53.895v0 333.069c16.707-5.389 35.032-9.701 53.895-9.701s37.187 3.773 53.895 9.701z" />
<glyph unicode="&#xe91f;" glyph-name="user" d="M881.778-7.111c-31.419 0-56.889 25.47-56.889 56.889v0c0 81.92-35.271 155.307-90.453 207.076-51.2-57.458-118.898-93.298-193.991-93.298-77.91 1.724-147.141 37.46-193.663 92.896l-0.328 0.402c-55.66-51.741-90.391-125.346-90.453-207.064v-0.012c0-31.419-25.47-56.889-56.889-56.889s-56.889 25.47-56.889 56.889v0c0 122.88 56.889 231.538 143.929 304.356-18.773 45.511-30.151 96.711-30.151 150.756 0 188.302 127.431 341.333 284.444 341.333s284.444-153.031 284.444-341.333c0-54.044-11.378-105.244-30.72-150.756 88.203-72.801 144.104-182.010 144.498-304.289v-0.067c0-31.419-25.47-56.889-56.889-56.889v0zM540.444 732.444c-94.436 0-170.667-101.831-170.667-227.556 0-125.156 76.231-227.556 170.667-227.556s170.667 102.4 170.667 227.556c0 125.724-76.231 227.556-170.667 227.556z" />
<glyph unicode="&#xe920;" glyph-name="wishlist" d="M843.992 384.404l-333.608-334.147-333.069 334.147c-38.113 42.653-61.409 99.252-61.409 161.293 0 133.944 108.583 242.526 242.526 242.526 57.737 0 110.762-20.176 152.409-53.861l-0.457 0.358c43.36 41.415 102.24 66.904 167.074 66.904 133.687 0 242.062-108.375 242.062-242.062 0-68.854-28.748-130.993-74.895-175.070l-0.093-0.088zM769.078 651.183c-23.99 23.976-57.124 38.804-93.721 38.804-0.020 0-0.039 0-0.059 0h0.003c-33.954 0-65.752-12.396-91.082-35.032l-72.219-71.68-72.219 71.68c-23.911 21.729-55.818 35.032-90.833 35.032-0.087 0-0.175 0-0.262 0h0.014c-0.207 0.001-0.452 0.002-0.697 0.002-73.818 0-133.659-59.841-133.659-133.659 0-37.351 15.321-71.123 40.020-95.376l0.020-0.020 257.617-254.922 257.078 254.383c24.719 24.272 40.039 58.044 40.039 95.394s-15.32 71.121-40.018 95.374l-0.020 0.020z" />
<glyph unicode="&#xe921;" glyph-name="zoom-in" d="M907.264 52.736c-9.28-9.354-22.14-15.145-36.352-15.145s-27.072 5.791-36.349 15.142l-161.283 161.283c-59.7-46.413-135.722-74.409-218.283-74.409-197.373 0-357.376 160.003-357.376 357.376 0 100.681 41.633 191.637 108.623 256.593l0.092 0.089c65.988 84.952 168.154 139.093 282.967 139.093 197.373 0 357.376-160.003 357.376-357.376 0-96.693-38.401-184.417-100.783-248.753l0.089 0.092 161.28-161.28c9.354-9.28 15.145-22.14 15.145-36.352s-5.791-27.072-15.142-36.349l-0.003-0.003zM641.024 680.96c-46.616 48.218-111.881 78.154-184.138 78.154-141.385 0-256-114.615-256-256 0-72.257 29.936-137.522 78.082-184.069l0.072-0.069c45.989-44.462 108.718-71.862 177.846-71.862 141.385 0 256 114.615 256 256 0 69.128-27.4 131.857-71.931 177.918l0.069-0.072zM563.2 448h-51.2v-51.2c0-28.277-22.923-51.2-51.2-51.2s-51.2 22.923-51.2 51.2v0 51.2h-51.2c-28.277 0-51.2 22.923-51.2 51.2s22.923 51.2 51.2 51.2v0h51.2v51.2c0 28.277 22.923 51.2 51.2 51.2s51.2-22.923 51.2-51.2v0-51.2h51.2c28.277 0 51.2-22.923 51.2-51.2s-22.923-51.2-51.2-51.2v0z" />
</font>
</defs>
</svg>
